<?xml version="1.0" standalone="no"?>
<!DOCTYPE svg PUBLIC "-//W3C//DTD SVG 20010904//EN"
 "http://www.w3.org/TR/2001/REC-SVG-20010904/DTD/svg10.dtd">
<svg version="1.0" xmlns="http://www.w3.org/2000/svg"
 width="688.000000pt" height="250.000000pt" viewBox="0 0 688.000000 250.000000"
 preserveAspectRatio="xMidYMid meet">

<g transform="translate(0.000000,250.000000) scale(0.100000,-0.100000)"
fill="#000000" stroke="none">
<path d="M944 1700 c-53 -21 -54 -29 -54 -378 0 -254 3 -323 13 -320 9 4 13
82 17 329 3 178 7 325 8 325 36 22 96 24 594 22 424 -2 540 -6 550 -16 10 -10
14 -89 18 -333 3 -200 9 -320 15 -322 6 -1 11 112 13 320 l2 322 -24 28 -24
28 -554 2 c-304 1 -563 -2 -574 -7z"/>
<path d="M2520 1625 l0 -55 140 0 140 0 0 -390 0 -390 65 0 65 0 0 390 0 390
135 0 135 0 0 55 0 55 -340 0 -340 0 0 -55z"/>
<path d="M4580 1235 l0 -445 60 0 60 0 0 185 c0 205 6 233 59 277 65 55 177
44 215 -22 19 -32 21 -55 24 -237 l4 -203 60 0 60 0 -4 213 c-5 235 -11 265
-67 322 -80 83 -234 81 -323 -3 l-28 -26 0 192 0 192 -60 0 -60 0 0 -445z"/>
<path d="M5325 1648 c-27 -15 -35 -28 -35 -59 0 -55 83 -82 114 -37 23 33 19
64 -10 87 -30 24 -41 25 -69 9z"/>
<path d="M1215 1540 c-7 -11 6 -17 44 -22 21 -3 28 -17 63 -128 22 -69 45
-131 50 -138 8 -9 46 -12 147 -10 l136 3 36 105 c20 58 35 108 32 113 -2 4
-80 7 -174 7 -144 0 -169 -2 -169 -15 0 -13 23 -15 150 -15 109 0 150 -3 150
-12 0 -6 -10 -42 -22 -80 l-22 -68 -121 0 -120 0 -45 133 -45 132 -42 3 c-22
2 -44 -2 -48 -8z"/>
<path d="M3515 1384 c-114 -22 -126 -27 -173 -69 -71 -64 -97 -127 -96 -235 0
-101 20 -155 81 -217 61 -62 135 -86 248 -81 94 5 142 24 187 75 17 18 16 21
-22 58 l-39 38 -35 -31 c-20 -17 -52 -34 -71 -38 -53 -10 -124 1 -154 23 -36
27 -71 81 -71 109 l0 24 230 0 230 0 0 44 c0 76 -36 170 -83 220 -55 56 -161
93 -232 80z m80 -109 c36 -7 82 -46 96 -82 20 -54 22 -53 -156 -53 -150 0
-165 2 -165 18 0 25 35 78 65 98 28 18 90 34 115 28 8 -1 29 -5 45 -9z"/>
<path d="M4165 1381 c-243 -41 -333 -347 -153 -521 100 -96 295 -108 396 -23
l33 28 -40 39 -41 40 -21 -23 c-53 -57 -174 -56 -238 2 -84 77 -80 246 8 320
61 51 159 55 222 8 15 -11 30 -21 33 -21 3 0 21 14 41 31 l36 32 -27 28 c-44
46 -163 74 -249 60z"/>
<path d="M5792 1379 c-100 -17 -173 -73 -215 -168 -31 -69 -29 -189 4 -261 33
-71 90 -125 159 -151 80 -30 215 -23 283 16 70 40 74 54 27 100 l-40 39 -27
-26 c-42 -39 -66 -48 -125 -48 -69 0 -142 43 -164 95 -28 68 -39 65 217 65
l232 0 -5 68 c-14 194 -153 302 -346 271z m151 -116 c32 -16 67 -68 67 -100 0
-23 -1 -23 -165 -23 -107 0 -165 4 -165 10 0 21 28 76 48 93 47 43 151 52 215
20z"/>
<path d="M5297 1373 c-4 -3 -7 -136 -7 -295 l0 -288 60 0 60 0 0 295 0 295
-53 0 c-30 0 -57 -3 -60 -7z"/>
<path d="M1357 1167 c-13 -9 -18 -23 -15 -47 2 -28 9 -37 31 -44 51 -18 92 26
67 72 -18 31 -55 40 -83 19z m52 -31 c9 -10 8 -16 -4 -26 -19 -16 -41 1 -32
24 8 20 21 20 36 2z"/>
<path d="M1590 1165 c-19 -22 -15 -67 6 -82 28 -20 66 -12 83 18 13 24 13 29
-2 53 -20 30 -67 36 -87 11z m59 -29 c9 -10 8 -16 -4 -26 -19 -16 -41 1 -32
24 8 20 21 20 36 2z"/>
<path d="M780 941 c0 -47 46 -118 99 -153 24 -17 72 -18 626 -18 564 0 602 1
630 18 41 26 87 94 88 134 l2 33 -297 3 c-290 2 -297 2 -303 -18 -6 -18 -15
-20 -118 -20 -101 0 -113 2 -125 20 -12 19 -23 20 -307 20 -285 0 -295 -1
-295 -19z m582 -31 c12 -18 24 -20 143 -20 119 0 131 2 143 20 12 19 23 20
278 20 l265 0 -7 -22 c-3 -13 -15 -35 -26 -50 -43 -61 -9 -58 -651 -58 -392 0
-595 4 -608 11 -24 12 -79 86 -79 106 0 10 49 13 265 13 254 0 265 -1 277 -20z"/>
</g>
</svg>
