<?xml version="1.0" standalone="no"?>
<!DOCTYPE svg PUBLIC "-//W3C//DTD SVG 20010904//EN"
 "http://www.w3.org/TR/2001/REC-SVG-20010904/DTD/svg10.dtd">
<svg version="1.0" xmlns="http://www.w3.org/2000/svg"
 width="651.000000pt" height="227.000000pt" viewBox="0 0 651.000000 227.000000"
 preserveAspectRatio="xMidYMid meet">

<g transform="translate(0.000000,227.000000) scale(0.100000,-0.100000)"
fill="#000000" stroke="none">
<path d="M0 1135 l0 -1135 3255 0 3255 0 0 1135 0 1135 -3255 0 -3255 0 0
-1135z m1565 690 c21 -8 39 -25 45 -40 16 -41 13 -648 -2 -643 -10 4 -14 81
-18 322 -5 300 -6 318 -24 332 -17 12 -110 14 -562 14 -501 0 -543 -1 -563
-17 -21 -18 -21 -26 -24 -332 -1 -241 -5 -315 -14 -319 -10 -3 -13 65 -13 316
0 305 1 320 20 345 11 14 30 28 43 30 12 2 260 5 550 6 441 1 533 -1 562 -14z
m1135 -70 l0 -55 -135 0 -135 0 0 -390 0 -390 -70 0 -70 0 0 390 0 390 -135 0
-135 0 0 55 0 55 340 0 340 0 0 -55z m1500 -137 l0 -192 33 31 c51 48 76 57
157 57 120 -1 178 -40 214 -147 13 -38 16 -90 16 -247 l0 -200 -59 0 -59 0 -4
198 c-3 127 -9 209 -17 230 -17 42 -60 64 -123 64 -56 -1 -100 -23 -132 -65
-19 -26 -21 -44 -24 -228 l-4 -199 -64 0 -64 0 0 445 0 445 65 0 65 0 0 -192z
m706 144 c21 -26 13 -72 -17 -95 -65 -48 -136 46 -78 104 25 25 73 20 95 -9z
m-4057 -222 l46 -135 119 0 119 0 28 83 28 82 -155 0 c-130 0 -154 2 -154 15
0 13 26 15 170 15 116 0 170 -3 170 -11 0 -6 -14 -56 -31 -110 l-31 -100 -145
3 -145 3 -42 132 -41 133 -32 0 c-23 0 -33 5 -33 16 0 12 9 14 42 12 l41 -3
46 -135z m2304 -41 c90 -24 164 -134 174 -261 l6 -68 -232 0 -231 0 0 -24 c0
-34 40 -88 85 -113 67 -38 165 -25 222 29 l22 20 40 -33 c22 -19 41 -37 41
-40 0 -4 -18 -23 -39 -42 -51 -46 -105 -60 -211 -55 -140 7 -225 66 -270 186
-53 142 9 325 133 388 63 33 166 38 260 13z m633 10 c56 -10 135 -47 150 -70
3 -6 -11 -28 -31 -49 l-38 -39 -34 26 c-62 47 -169 44 -228 -8 -100 -88 -81
-280 35 -339 65 -33 148 -24 198 22 l22 22 33 -30 c17 -16 36 -32 41 -36 13
-10 -21 -46 -69 -72 -33 -17 -57 -21 -140 -21 -92 0 -104 2 -153 30 -64 35
-97 71 -130 143 -78 171 28 386 209 421 62 12 68 12 135 0z m1673 -8 c105 -31
181 -149 181 -283 l0 -48 -231 0 -231 0 6 -31 c9 -46 41 -85 89 -108 74 -36
153 -24 214 31 l22 21 40 -33 c23 -17 41 -38 41 -46 0 -20 -76 -72 -124 -85
-23 -6 -79 -9 -126 -7 -71 3 -94 9 -139 33 -99 54 -144 139 -145 270 0 78 3
96 26 140 26 50 71 98 120 128 55 34 173 42 257 18z m-541 -288 l2 -293 -65 0
-65 0 0 288 c0 159 3 292 7 296 4 4 32 6 63 4 l55 -3 3 -292z m-3988 82 c29
-35 7 -95 -36 -95 -28 0 -54 25 -54 52 0 47 62 77 90 43z m240 0 c30 -36 4
-95 -41 -95 -44 0 -68 78 -31 99 25 15 58 13 72 -4z m-290 -225 c10 -18 21
-20 125 -20 104 0 115 2 125 20 11 20 19 20 303 18 l292 -3 -3 -29 c-6 -51
-41 -104 -92 -139 -22 -16 -77 -17 -627 -17 l-603 0 -45 41 c-44 40 -83 118
-70 138 4 8 100 11 295 11 279 0 290 -1 300 -20z"/>
<path d="M2950 1392 c-37 -18 -80 -74 -80 -103 0 -18 11 -19 165 -19 150 0
165 2 165 18 0 28 -37 81 -72 102 -42 26 -129 27 -178 2z"/>
<path d="M5258 1390 c-36 -19 -57 -48 -72 -97 l-7 -23 165 0 c158 0 166 1 166
20 0 30 -19 63 -53 90 -43 34 -145 39 -199 10z"/>
<path d="M873 1264 c-3 -8 -1 -20 6 -27 14 -14 47 15 37 32 -10 16 -36 13 -43
-5z"/>
<path d="M1111 1266 c-9 -10 -8 -16 4 -26 13 -11 19 -11 32 2 16 17 10 38 -11
38 -8 0 -19 -6 -25 -14z"/>
<path d="M320 1040 c0 -11 19 -40 43 -65 l44 -45 592 0 c662 0 628 -4 670 70
12 21 21 43 21 49 0 8 -78 11 -268 11 -256 0 -268 -1 -280 -20 -11 -18 -23
-20 -137 -20 -114 0 -126 2 -137 20 -12 19 -24 20 -280 20 -261 0 -268 -1
-268 -20z"/>
</g>
</svg>
